<?xml version="1.0" encoding="utf-8"?>
<!-- Generator: Adobe Illustrator 15.1.0, SVG Export Plug-In . SVG Version: 6.00 Build 0)  -->
<!DOCTYPE svg PUBLIC "-//W3C//DTD SVG 1.1//EN" "http://www.w3.org/Graphics/SVG/1.1/DTD/svg11.dtd">
<svg version="1.1" id="Layer_1" xmlns="http://www.w3.org/2000/svg" xmlns:xlink="http://www.w3.org/1999/xlink" x="0px" y="0px"
	 width="554px" height="96px" viewBox="0.953 1.209 554 96" enable-background="new 0.953 1.209 554 96" xml:space="preserve">
<style type="text/css">
	.st0{fill:#747373;}
	.st1{fill:#F18626;}
</style>
<g>
	<polygon class="st0" points="385.706,24.899 367.607,48.8 367.607,24.899 357.706,24.899 357.706,73.199 367.607,73.199 
		367.607,49.3 385.706,73.199 397.706,73.199 378.507,48.8 396.706,24.899 	"/>
	<path class="st0" d="M538.706,45.3c-6.1-1.601-13.3-2.4-13.3-6.5c0-4,3.2-5.9,8.101-5.9c4.1,0,8.8,2.8,8.8,7.2h9.6
		c0-9.4-9.4-15.9-18.5-15.9c-9.5,0-18,5-18,14.5c0,8.2,6.4,11.5,15.6,13.2c8.801,1.601,12.2,4.101,12.2,7.7c0,3.9-4.7,5.6-9,5.6
		c-5.1,0-10.399-3.8-10.399-8.8h-9.601c0,10.8,9.101,17.4,20.601,17.4c9.199,0,18.1-4.8,18.1-14.2
		C553.007,50.8,546.507,47.5,538.706,45.3"/>
	<path class="st0" d="M478.206,73.899c13.9,0,19.2-7.6,19.2-20.399V24.899h-9.899v29.7c0,6-2.301,10.7-9.4,10.7
		s-9.4-4.7-9.4-10.7v-29.7h-9.899V53.5C458.906,66.3,464.206,73.899,478.206,73.899"/>
	<path class="st0" d="M440.007,24.899h-9.9v31.9c0,5.3-3,8.399-7.5,8.399c-5.2,0-7-4.6-7-9.199h-9.9c0.301,11,6.101,17.8,17,17.8
		c12.101,0,17.2-7.101,17.2-17.2L440.007,24.899z"/>
</g>
<path class="st1" d="M267.107,68.599c-71.899,32.3-143.7-11.3-150.1-35c38-11.7,75.8-10.1,103.3-7.4l6.2,0.7l8.699-2.1
	c-39.499-13.7-125.6-20.7-195.8,25.899c-0.5-2-6.399-14.5,51.5-44.399c0.801-1.2,1.801-2.4,2.9-3.3c-15.6,3.5-104.5,40.399-89,86.5
	l1.6,3.899c0,0,37.2-30.7,81.2-49.8c47.9,83.7,150.7,44.2,175.4,30.2c0,0,2.199-1.3,2.899-1.8c0.7-0.4,10.2-6.601,10.2-6.601
	l1.6-1.8L267.107,68.599z"/>
</svg>
